<svg width="62" height="44" viewBox="0 0 62 44" fill="none" xmlns="http://www.w3.org/2000/svg">
    <g clip-path="url(#clip0_8377_2516)">
    <path d="M2.53444 38.5739C2.31164 38.2145 1.99601 37.9812 1.53185 37.9812C1.0027 37.9812 0.600423 38.4162 0.600423 38.9427C0.600423 39.4693 1.09244 39.69 1.49162 39.8823L2.43542 40.3836C2.80985 40.6232 2.99861 40.9321 2.99861 41.3861C2.99861 42.2216 2.25285 42.849 1.45139 42.849C0.764428 42.849 0.225997 42.4139 -0.00299072 41.7676L0.272414 41.6415C0.482835 42.1775 0.869639 42.5495 1.46377 42.5495C2.1136 42.5495 2.68297 42.0293 2.68297 41.3609C2.68297 40.7934 2.1136 40.5538 1.68657 40.3394L0.795372 39.8571C0.467363 39.649 0.284791 39.3558 0.284791 38.9554C0.284791 38.2082 0.80775 37.6816 1.55041 37.6816C2.04862 37.6816 2.51897 37.9559 2.75724 38.3879L2.53444 38.5739Z" fill="#231F20"/>
    <path d="M4.12806 38.0478V39.8764H6.12087V40.1759H4.12806V42.4774H6.17348V42.7769H3.81552V37.7451H6.17348V38.0446H4.12806V38.0478Z" fill="#231F20"/>
    <path d="M11.768 40.3554C11.7804 40.9891 11.6906 41.544 11.2512 42.0295C10.7809 42.5497 10.0722 42.8461 9.37908 42.8461C8.00824 42.8461 6.84164 41.6701 6.84164 40.2829C6.84164 38.8957 8.00206 37.6787 9.41621 37.6787C10.3136 37.6787 11.0408 38.1327 11.5576 38.8515L11.3007 39.0565C10.8613 38.3881 10.1929 37.9751 9.39455 37.9751C8.18772 37.9751 7.15418 39.0502 7.15418 40.2577C7.15418 41.4652 8.16297 42.5403 9.39455 42.5403C9.9237 42.5403 10.4436 42.3196 10.8489 41.9854C11.276 41.6165 11.4307 41.1972 11.4523 40.6518H9.68233V40.3523H11.7649L11.768 40.3554Z" fill="#231F20"/>
    <path d="M15.5278 37.748H15.8434V40.885C15.8434 41.3989 15.8434 41.8403 15.5092 42.2597C15.175 42.6474 14.6645 42.8492 14.1663 42.8492C13.6681 42.8492 13.1575 42.6474 12.8233 42.2597C12.4891 41.8403 12.4891 41.3989 12.4891 40.885V37.748H12.8047V40.7905C12.8047 41.2445 12.8047 41.7237 13.0615 42.0579C13.3029 42.3795 13.7887 42.5466 14.1694 42.5466C14.55 42.5466 15.0358 42.3795 15.2772 42.0579C15.534 41.7237 15.534 41.2445 15.534 40.7905V37.748H15.5278Z" fill="#231F20"/>
    <path d="M19.3003 42.7799H18.9413L17.3291 40.3964H17.1713V42.7799H16.8557V37.748H17.4714C17.8706 37.748 18.2636 37.7544 18.5978 38.0003C18.9506 38.2525 19.096 38.656 19.096 39.0817C19.096 39.9581 18.4988 40.409 17.6819 40.3964L19.3003 42.7799ZM17.5705 40.0969C17.8799 40.0969 18.1863 40.0842 18.4338 39.8636C18.669 39.6712 18.7804 39.3717 18.7804 39.0691C18.7804 38.6939 18.6102 38.3218 18.2574 38.1611C17.9944 38.0349 17.6602 38.0476 17.3724 38.0476H17.1682V40.0969H17.5674H17.5705Z" fill="#231F20"/>
    <path d="M20.5407 41.1248L19.8785 42.78H19.5567L21.6268 37.5811L23.6908 42.78H23.369L22.7068 41.1248H20.5376H20.5407ZM21.6268 38.3945L20.6583 40.8253H22.5923L21.6299 38.3945H21.6268Z" fill="#231F20"/>
    <path d="M28.7167 42.9468L24.5701 38.4541V42.7797H24.2545V37.6816L28.401 42.1397V37.7479H28.7167V42.9468Z" fill="#231F20"/>
    <path d="M33.7013 38.7725C33.3207 38.2996 32.6523 37.978 32.0427 37.978C30.8111 37.978 29.7962 39.0594 29.7962 40.2953C29.7962 40.8817 30.0437 41.4366 30.4584 41.8496C30.8699 42.25 31.461 42.5432 32.0427 42.5432C32.6245 42.5432 33.3331 42.2279 33.7013 41.7771V42.2185C33.2372 42.6126 32.6647 42.8459 32.0551 42.8459C30.6781 42.8459 29.4805 41.6762 29.4805 40.2701C29.4805 38.8639 30.6595 37.6816 32.0613 37.6816C32.6585 37.6816 33.2588 37.9213 33.6982 38.3343V38.7725H33.7013ZM31.4269 43.9998L31.1763 43.8737L31.7859 42.9121L32.1541 43.0571L31.4269 43.9998Z" fill="#231F20"/>
    <path d="M35.1033 41.1248L34.4411 42.78H34.1193L36.1894 37.5811L38.2534 42.78H37.9316L37.2694 41.1248H35.1002H35.1033ZM36.1894 38.3945L35.2209 40.8253H37.1549L36.1925 38.3945H36.1894Z" fill="#231F20"/>
    <path d="M43.1362 38.5739C42.9135 38.2145 42.5978 37.9812 42.1337 37.9812C41.6014 37.9812 41.2022 38.4162 41.2022 38.9427C41.2022 39.4693 41.6942 39.69 42.0934 39.8823L43.0372 40.3836C43.4117 40.6232 43.6004 40.9321 43.6004 41.3861C43.6004 42.2216 42.8547 42.849 42.0532 42.849C41.3662 42.849 40.8278 42.4139 40.5988 41.7676L40.8742 41.6415C41.0846 42.1775 41.4714 42.5495 42.0656 42.5495C42.7154 42.5495 43.2848 42.0293 43.2848 41.3609C43.2848 40.7934 42.7154 40.5538 42.2884 40.3394L41.3972 39.8571C41.0692 39.649 40.8866 39.3558 40.8866 38.9554C40.8866 38.2082 41.4096 37.6816 42.1522 37.6816C42.6504 37.6816 43.1208 37.9559 43.359 38.3879L43.1362 38.5739Z" fill="#231F20"/>
    <path d="M49.2417 40.2638C49.2417 41.6794 48.069 42.849 46.6796 42.849C45.2902 42.849 44.1174 41.6794 44.1174 40.2638C44.1174 38.8482 45.284 37.6816 46.6796 37.6816C48.0751 37.6816 49.2417 38.8482 49.2417 40.2638ZM44.433 40.2638C44.433 41.5059 45.448 42.5464 46.6796 42.5464C47.9111 42.5464 48.9261 41.4965 48.9261 40.2638C48.9261 39.031 47.905 37.9812 46.6796 37.9812C45.4542 37.9812 44.433 39.0216 44.433 40.2638Z" fill="#231F20"/>
    <path d="M53.9329 38.7725C53.5522 38.2996 52.8838 37.978 52.2742 37.978C51.0427 37.978 50.0277 39.0594 50.0277 40.2953C50.0277 40.8817 50.2752 41.4366 50.6899 41.8496C51.1015 42.25 51.6925 42.5432 52.2742 42.5432C52.856 42.5432 53.5646 42.2279 53.9329 41.7771V42.2185C53.4687 42.6126 52.8962 42.8459 52.2897 42.8459C50.9127 42.8459 49.7151 41.6762 49.7151 40.2701C49.7151 38.8639 50.8941 37.6816 52.2959 37.6816C52.8931 37.6816 53.4965 37.9213 53.9329 38.3343V38.7725Z" fill="#231F20"/>
    <path d="M55.1644 42.7799H54.8488V37.748H55.1644V42.7799Z" fill="#231F20"/>
    <path d="M56.7116 41.1248L56.0494 42.78H55.7276L57.7978 37.5811L59.8618 42.78H59.5399L58.8777 41.1248H56.7085H56.7116ZM57.7978 38.3945L56.8292 40.8253H58.7632L57.8009 38.3945H57.7978Z" fill="#231F20"/>
    <path d="M60.7405 42.4803H61.9999V42.7799H60.4279V37.748H60.7405V42.4803Z" fill="#231F20"/>
    <path d="M5.81802 14.9692H56.0406C56.0406 14.9692 49.1772 31.02 30.9293 31.02C12.6815 31.02 5.81802 14.9692 5.81802 14.9692Z" fill="url(#paint0_radial_8377_2516)"/>
    <path d="M12.3132 11.1416H49.7682C49.7682 11.1416 49.1803 29.147 31.0407 29.147C12.9012 29.147 12.3132 11.1416 12.3132 11.1416Z" fill="url(#paint1_radial_8377_2516)"/>
    <path d="M37.0221 0C37.0283 0.110347 37.0375 0.220694 37.0375 0.33104C37.0375 3.89051 34.5342 6.77214 31.0436 6.77214C27.5531 6.77214 24.3999 3.88736 24.3999 0.33104C24.3999 0.293207 24.4061 0.258527 24.4061 0.223846C19.8789 2.62941 16.7876 7.45314 16.7876 13.0146C16.7876 20.9785 23.1219 27.4322 30.9322 27.4322C38.7426 27.4322 45.0769 20.9754 45.0769 13.0146C45.0769 7.27343 41.7844 2.31728 37.0221 0Z" fill="url(#paint2_radial_8377_2516)"/>
    </g>
    <defs>
    <radialGradient id="paint0_radial_8377_2516" cx="0" cy="0" r="1" gradientUnits="userSpaceOnUse" gradientTransform="translate(30.2393 10.6468) scale(25.2877 25.7644)">
    <stop stop-color="#005826"/>
    <stop offset="0.55" stop-color="#005826"/>
    <stop offset="0.63" stop-color="#00652D"/>
    <stop offset="0.77" stop-color="#008740"/>
    <stop offset="0.88" stop-color="#00A651"/>
    </radialGradient>
    <radialGradient id="paint1_radial_8377_2516" cx="0" cy="0" r="1" gradientUnits="userSpaceOnUse" gradientTransform="translate(31.4306 11.3055) scale(20.3304 20.7137)">
    <stop stop-color="#790000"/>
    <stop offset="0.47" stop-color="#790000"/>
    <stop offset="0.88" stop-color="#ED1C24"/>
    </radialGradient>
    <radialGradient id="paint2_radial_8377_2516" cx="0" cy="0" r="1" gradientUnits="userSpaceOnUse" gradientTransform="translate(30.9322 13.7177) scale(13.8878 14.1496)">
    <stop offset="0.08" stop-color="white"/>
    <stop offset="0.29" stop-color="#FFF1C4"/>
    <stop offset="0.52" stop-color="#FFE387"/>
    <stop offset="1" stop-color="#FCB131"/>
    </radialGradient>
    <clipPath id="clip0_8377_2516">
    <rect width="62" height="44" fill="white"/>
    </clipPath>
    </defs>
    </svg>
    