<svg width="152" height="152" viewBox="0 0 152 152" fill="none" xmlns="http://www.w3.org/2000/svg">
<rect width="152" height="152" fill="white"/>
<path d="M77.9355 119.64L76.7158 121.221L76.2949 121.009L77.3174 119.396L77.9355 119.64Z" fill="#231F20"/>
<path d="M71.6396 118.101V110.733H72.1699V119.454L65.2139 111.918V119.174H64.6846V110.622L71.6396 118.101Z" fill="#231F20"/>
<path d="M26.6006 110.622C27.4361 110.622 28.2252 111.082 28.625 111.807L28.251 112.119C27.8773 111.516 27.3479 111.125 26.5693 111.125C25.682 111.125 25.007 111.854 25.0068 112.737C25.0068 113.62 25.8324 113.991 26.502 114.313L28.085 115.154C28.7129 115.556 29.0302 116.075 29.0303 116.836C29.0303 118.237 27.779 119.29 26.4346 119.29C25.2824 119.29 24.3793 118.56 23.9951 117.477L24.457 117.265C24.8099 118.164 25.4587 118.788 26.4551 118.788C27.5451 118.788 28.501 117.915 28.501 116.794C28.5009 115.842 27.5454 115.44 26.8291 115.08L25.334 114.271C24.7839 113.922 24.4775 113.43 24.4775 112.759C24.4776 111.506 25.355 110.622 26.6006 110.622Z" fill="#231F20"/>
<path d="M45.4785 115.837C45.4785 116.598 45.4786 117.402 45.9092 117.963C46.3141 118.502 47.129 118.783 47.7676 118.783C48.406 118.783 49.221 118.502 49.626 117.963C50.0566 117.402 50.0566 116.598 50.0566 115.837V110.733H50.5762V115.996C50.5762 116.858 50.576 117.598 50.0156 118.302C49.4551 118.952 48.5984 119.29 47.7627 119.29C46.927 119.29 46.0704 118.952 45.5098 118.302C44.9493 117.598 44.9492 116.858 44.9492 115.996V110.733H45.4785V115.837Z" fill="#231F20"/>
<path d="M94.707 110.622C95.5426 110.622 96.3319 111.082 96.7314 111.807L96.3574 112.119C95.9839 111.516 95.4543 111.125 94.6758 111.125C93.783 111.125 93.1135 111.854 93.1133 112.737C93.1133 113.621 93.9388 113.991 94.6084 114.313L96.1914 115.154C96.8195 115.556 97.1356 116.075 97.1357 116.836C97.1357 118.237 95.8854 119.29 94.541 119.29C93.3888 119.29 92.4858 118.56 92.1016 117.477L92.5635 117.265C92.9164 118.164 93.5648 118.788 94.5615 118.788C95.6515 118.788 96.6064 117.915 96.6064 116.794C96.6064 115.842 95.6518 115.44 94.9355 115.08L93.4404 114.271C92.8902 113.922 92.584 113.43 92.584 112.759C92.5841 111.506 93.4615 110.622 94.707 110.622Z" fill="#231F20"/>
<path fill-rule="evenodd" clip-rule="evenodd" d="M102.301 110.622C104.642 110.622 106.599 112.58 106.599 114.954C106.598 117.328 104.631 119.29 102.301 119.29C99.9703 119.29 98.0031 117.328 98.0029 114.954C98.0029 112.58 99.9598 110.622 102.301 110.622ZM102.301 111.125C100.245 111.125 98.5322 112.87 98.5322 114.954C98.5324 117.037 100.235 118.782 102.301 118.782C104.366 118.782 106.069 117.022 106.069 114.954C106.069 112.886 104.356 111.125 102.301 111.125Z" fill="#231F20"/>
<path d="M39.7949 110.617C41.3 110.617 42.5199 111.378 43.3867 112.584L42.9561 112.929C42.2191 111.808 41.0978 111.114 39.7588 111.114C37.7344 111.114 36 112.918 36 114.943C36.0001 116.969 37.6929 118.772 39.7588 118.772C40.6462 118.772 41.5185 118.402 42.1982 117.842C42.9146 117.223 43.1737 116.519 43.21 115.604H40.2412V115.102H43.7344L43.7393 115.107C43.76 116.17 43.6098 117.101 42.873 117.915C42.0842 118.788 40.8951 119.285 39.7324 119.285C37.4329 119.285 35.4766 117.312 35.4766 114.985C35.4767 112.659 37.4229 110.617 39.7949 110.617Z" fill="#231F20"/>
<path d="M77.7793 110.622C78.7809 110.622 79.7884 111.024 80.5254 111.717V112.446C79.8862 111.657 78.7688 111.119 77.749 111.119C75.6831 111.119 73.9805 112.934 73.9805 115.007C73.9805 115.99 74.3953 116.922 75.0908 117.614C75.7811 118.286 76.7733 118.777 77.749 118.777C78.7248 118.777 79.9127 118.248 80.5303 117.492V118.232C79.7519 118.893 78.7919 119.285 77.7695 119.285C75.4597 119.285 73.4512 117.322 73.4512 114.964C73.4514 112.605 75.4282 110.622 77.7793 110.622Z" fill="#231F20"/>
<path d="M111.722 110.622C112.723 110.622 113.736 111.024 114.468 111.717V112.452C113.829 111.659 112.708 111.119 111.686 111.119C109.62 111.119 107.917 112.934 107.917 115.007C107.917 115.99 108.333 116.922 109.028 117.614C109.719 118.286 110.71 118.777 111.686 118.777C112.661 118.777 113.85 118.248 114.468 117.492V118.232C113.689 118.893 112.729 119.285 111.712 119.285C109.402 119.285 107.394 117.322 107.394 114.964C107.394 112.605 109.371 110.622 111.722 110.622Z" fill="#231F20"/>
<path fill-rule="evenodd" clip-rule="evenodd" d="M63.7393 119.175H63.1992L62.0889 116.397H58.4551L57.3447 119.175H56.8047L60.2773 110.453L63.7393 119.175ZM58.6523 115.896H61.8965L60.2822 111.818H60.2773L58.6523 115.896Z" fill="#231F20"/>
<path fill-rule="evenodd" clip-rule="evenodd" d="M88.167 119.175H87.627L86.5166 116.397H82.8828L81.7725 119.175H81.2324L84.7051 110.453L88.167 119.175ZM83.0801 115.896H86.3242L84.71 111.818H84.7051L83.0801 115.896Z" fill="#231F20"/>
<path fill-rule="evenodd" clip-rule="evenodd" d="M124.413 119.175H123.873L122.763 116.397H119.129L118.019 119.175H117.479L120.951 110.453L124.413 119.175ZM119.326 115.896H122.57L120.956 111.818H120.951L119.326 115.896Z" fill="#231F20"/>
<path fill-rule="evenodd" clip-rule="evenodd" d="M53.3076 110.733C53.9771 110.733 54.6358 110.745 55.1963 111.157C55.7881 111.58 56.0322 112.257 56.0322 112.971C56.0322 114.441 55.0304 115.197 53.6602 115.176L56.375 119.174H55.7725L53.0684 115.176H52.8037V119.174H52.2744V110.733H53.3076ZM52.7988 114.674H53.4736C53.9926 114.674 54.5068 114.652 54.9219 114.282C55.3162 113.959 55.5029 113.457 55.5029 112.949C55.5028 112.32 55.2174 111.696 54.626 111.427C54.2951 111.268 53.8967 111.24 53.5146 111.236H52.7988V114.674Z" fill="#231F20"/>
<path d="M116.534 119.174H116.005V110.733H116.534V119.174Z" fill="#231F20"/>
<path d="M125.887 118.672H128V119.174H125.363V110.733H125.887V118.672Z" fill="#231F20"/>
<path d="M34.3555 111.23H30.9248V114.304H34.2676V114.806H30.9248V118.667H34.3555V119.169H30.4004V110.729H34.3555V111.23Z" fill="#231F20"/>
<path d="M80.5303 112.452H80.5254V112.446C80.527 112.448 80.5287 112.45 80.5303 112.452Z" fill="#231F20"/>
<path d="M33.7588 72.5242H118.003C118.003 72.5242 106.49 99.4481 75.8809 99.4481C45.2717 99.4481 33.7588 72.5242 33.7588 72.5242Z" fill="#00A651"/>
<path d="M44.6543 66.1035H107.482C107.482 66.1035 106.496 96.3061 76.0682 96.3061C45.6406 96.3061 44.6543 66.1035 44.6543 66.1035Z" fill="#ED1C24"/>
<path d="M86.1019 47.4143C86.1123 47.5994 86.1277 47.7845 86.1277 47.9696C86.1277 53.9403 81.9286 58.774 76.0734 58.774C70.2184 58.774 64.9292 53.935 64.9292 47.9696C64.9292 47.9061 64.9396 47.848 64.9396 47.7898C57.3456 51.8249 52.1602 59.9163 52.1602 69.2452C52.1602 82.604 62.7854 93.4296 75.8866 93.4296C88.9879 93.4296 99.6132 82.5988 99.6132 69.2452C99.6132 59.6149 94.0903 51.3014 86.1019 47.4143Z" fill="#FCB131"/>
</svg>
